<svg xmlns="http://www.w3.org/2000/svg" viewBox="0 0 168.95 66.07"><defs><linearGradient id="linear-gradient" x1="36.11" y1="66.07" x2="36.11" y2="3.47" gradientUnits="userSpaceOnUse"><stop offset="0" stop-color="#1e1d32" stop-opacity=".97"/><stop offset=".1" stop-color="#281e32" stop-opacity=".97"/><stop offset=".26" stop-color="#422231" stop-opacity=".98"/><stop offset=".47" stop-color="#6e2830" stop-opacity=".98"/><stop offset=".72" stop-color="#a9302f" stop-opacity=".99"/><stop offset="1" stop-color="#f43a2d"/></linearGradient><linearGradient id="linear-gradient-2" x1="46.74" y1="66.07" x2="46.74" y2="4.06" gradientUnits="userSpaceOnUse"><stop offset="0" stop-color="#f7352c"/><stop offset=".13" stop-color="#f83f2d"/><stop offset=".35" stop-color="#f9592f"/><stop offset=".63" stop-color="#fb8533"/><stop offset=".96" stop-color="#ffc037"/><stop offset="1" stop-color="#ffc838"/></linearGradient><linearGradient id="linear-gradient-3" x1="36.11" y1="54.79" x2="36.11" y2="48.85" gradientUnits="userSpaceOnUse"><stop offset="0" stop-color="#f7352c"/><stop offset=".22" stop-color="#f83f2e"/><stop offset=".59" stop-color="#fb5932"/><stop offset="1" stop-color="#ff7e38"/></linearGradient><style>.cls-10{fill:none;stroke-miterlimit:10;stroke:#43b0f8}</style></defs><g id="Layer_2" data-name="Layer 2"><g id="Layer_1-2" data-name="Layer 1"><path d="M14.99 34.32v-1.8h-3.4v1.8l1.7 1.81 1.7-1.81zm-3.4 5.6v1.81h3.4v-1.81l-1.7-1.8-1.7 1.8zm-1.1-4.5H8.68v3.4h1.81l1.8-1.7-1.8-1.7zm5.6 0l-1.8 1.7 1.8 1.7h1.8v-3.4h-1.8z" fill="#fda80d"/><path d="M59.87 35.73A1.74 1.74 0 1058.09 34a1.73 1.73 0 001.78 1.73z" fill="#06fe00"/><path d="M59.78 38.34A1.74 1.74 0 1061.56 40a1.74 1.74 0 00-1.78-1.66z" fill="#2a8feb"/><path d="M56.74 35.3a1.74 1.74 0 101.78 1.7 1.73 1.73 0 00-1.78-1.7z" fill="#fe0406"/><path d="M62.82 35.3a1.74 1.74 0 00.09 3.47 1.74 1.74 0 10-.09-3.47z" fill="#f60"/><path d="M71.14 42.86c-2.22-18.21-9.76-20.19-11.31-20.74a.2.2 0 01-.15-.17C58.52 15.66 49.61 16 48 15.92c-8-.6-9.24-6.94-9.56-9.65A.24.24 0 0038 6.2a11.86 11.86 0 00-.21 8.8.24.24 0 01-.26.32C29.14 14.15 26.89 6 26.31 3.65a.24.24 0 00-.39-.11C12.86 15.39 20.77 27.74 23 30.72a.24.24 0 01-.29.36c-5.34-2.28-5.92-7.79-6.08-9.93a.24.24 0 00-.28-.21C9.6 22 6 27.64 5.52 28.56.3 38.34.61 51.75.61 53.56 1 62.86 5.55 65 6.39 65.41c4.58 1.81 8.2-1.81 9-2.7C20 57.27 26 46 26.7 44.59c1.68-3.17 5.66-2.92 5.66-2.92h6.85c5.12 0 6.78 2.95 7.59 4.28 1.85 3.81 8.93 14.75 10.27 16.55 4.46 6 10.12 2.6 10.13 2.59 6.19-3.63 4.12-20.37 3.94-22.23zM13.29 29.28a7.77 7.77 0 11-7.77 7.77 7.77 7.77 0 017.77-7.77zm14.93 11.46c-1.18.34-3.59 1.59-5.72 6.07a64.93 64.93 0 01-9 14.22c-.71.67-4.42 4.68-8 1.23a12.55 12.55 0 01-3.14-8.76c.15-3.1.62-1.4.62-1.39a21 21 0 002.82 6.76c1 1.34 3.29 2.41 6.32-1 2.25-2.13 8.45-12.72 8.45-12.72.82-1.52 3.43-5.88 7.75-5.48 2.19.38 1.07.74-.1 1.07zm31.59-11.46A7.77 7.77 0 1152 37.05a7.77 7.77 0 017.81-7.77zm6.82 33c-3.62 3.45-7.33-.56-8-1.23a65.14 65.14 0 01-9-14.22c-2.12-4.48-4.54-5.73-5.72-6.07s-2.28-.69-.11-1.09c4.32-.4 6.93 4 7.75 5.48 0 0 6.2 10.59 8.45 12.72 3 3.42 5.27 2.35 6.31 1a21.31 21.31 0 002.92-6.75s.46-1.71.62 1.39a12.55 12.55 0 01-3.22 8.76z" fill="url(#linear-gradient)"/><path d="M71.14 42.86c-2.22-18.21-9.76-20.19-11.31-20.74a.2.2 0 01-.15-.17C58.52 15.66 49.61 16 48 15.92c-8-.6-9.24-6.94-9.56-9.65A.24.24 0 0038 6.2a11.86 11.86 0 00-.21 8.8.24.24 0 01-.26.32c-8-1.1-10.39-8.52-11.11-11.25C26 15.24 31.51 22 34 24.45c-6.77-.4-11.57-8.67-11.87-9.27 1.24 8.57 5 10.8 6.22 12.61-2.7.19-6.2-2.87-6.57-3.5 2.76 9.43 7.47 17.38 15.62 17.38h1.8c5.12 0 6.78 2.95 7.59 4.28 1.85 3.81 8.93 14.75 10.27 16.55 4.46 6 10.12 2.6 10.13 2.59 6.44-3.8 4.13-20.37 3.95-22.23zM59.81 29.28A7.77 7.77 0 1152 37.05a7.77 7.77 0 017.81-7.77zM58.59 61a65.14 65.14 0 01-9-14.22c-2.12-4.48-4.54-5.73-5.72-6.07s-2.28-.69-.11-1.09c4.32-.4 6.93 4 7.75 5.48 0 0 6.2 10.59 8.45 12.72 3 3.42 5.27 2.35 6.31 1a21.31 21.31 0 002.92-6.75s.46-1.71.62 1.39a12.55 12.55 0 01-3.14 8.76c-3.67 3.5-7.37-.51-8.08-1.22z" fill="url(#linear-gradient-2)" opacity=".67"/><path transform="rotate(20.19 14.283 4.063)" stroke="#ffaf32" fill="none" stroke-miterlimit="10" d="M11.62 1.4h5.32v5.32h-5.32z"/><circle class="cls-10" cx="2.61" cy="19.55" r="2.11"/><path class="cls-10" d="M70.71 23.19l-5.57-5.57 7.34-1.71-1.77 7.28z"/><path d="M37.51 51.82l1.37-1.37a.71.71 0 000-1l-.41-.41a.71.71 0 00-1 0l-1.37 1.37-1.37-1.37a.71.71 0 00-1 0l-.41.41a.71.71 0 000 1l1.38 1.37-1.38 1.37a.71.71 0 000 1l.41.41a.71.71 0 001 0l1.37-1.38 1.37 1.38a.71.71 0 001 0l.41-.41a.71.71 0 000-1z" fill="url(#linear-gradient-3)"/><text transform="matrix(.83 0 0 1 77.04 59.04)" font-size="40" fill="#fff" font-family="Ohio-Collegiate,Ohio Collegiate">C<tspan x="14.69" y="0" letter-spacing=".03em">M G</tspan><tspan x="59.56" y="0" letter-spacing="0">ame</tspan></text></g></g></svg>